<svg width="32" height="32" viewBox="0 0 32 32" fill="none" xmlns="http://www.w3.org/2000/svg">
<rect width="32" height="32" rx="10" fill="#ACA7E9"/>
<g clip-path="url(#clip0_264_7351)">
<path d="M8.80059 17.1984L8.20059 15.9984H12.4006L11.9206 14.7984H8.00059L7.40059 13.5984H13.6406L13.1606 12.3984H7.28859L6.60059 11.1984H9.60059C9.60059 10.774 9.76916 10.3671 10.0692 10.067C10.3693 9.76696 10.7762 9.59839 11.2006 9.59839H20.8006V12.7984H23.2006L25.6006 15.9984V19.9984H24.0006C24.0006 20.6349 23.7477 21.2454 23.2976 21.6954C22.8476 22.1455 22.2371 22.3984 21.6006 22.3984C20.9641 22.3984 20.3536 22.1455 19.9035 21.6954C19.4534 21.2454 19.2006 20.6349 19.2006 19.9984H16.0006C16.0006 20.6349 15.7477 21.2454 15.2976 21.6954C14.8476 22.1455 14.2371 22.3984 13.6006 22.3984C12.9641 22.3984 12.3536 22.1455 11.9035 21.6954C11.4534 21.2454 11.2006 20.6349 11.2006 19.9984H9.60059V17.1984H8.80059ZM21.6006 21.1984C21.9188 21.1984 22.2241 21.072 22.4491 20.8469C22.6742 20.6219 22.8006 20.3166 22.8006 19.9984C22.8006 19.6801 22.6742 19.3749 22.4491 19.1499C22.2241 18.9248 21.9188 18.7984 21.6006 18.7984C21.2823 18.7984 20.9771 18.9248 20.7521 19.1499C20.527 19.3749 20.4006 19.6801 20.4006 19.9984C20.4006 20.3166 20.527 20.6219 20.7521 20.8469C20.9771 21.072 21.2823 21.1984 21.6006 21.1984ZM22.8006 13.9984H20.8006V15.9984H24.3686L22.8006 13.9984ZM13.6006 21.1984C13.9188 21.1984 14.2241 21.072 14.4491 20.8469C14.6742 20.6219 14.8006 20.3166 14.8006 19.9984C14.8006 19.6801 14.6742 19.3749 14.4491 19.1499C14.2241 18.9248 13.9188 18.7984 13.6006 18.7984C13.2823 18.7984 12.9771 18.9248 12.7521 19.1499C12.527 19.3749 12.4006 19.6801 12.4006 19.9984C12.4006 20.3166 12.527 20.6219 12.7521 20.8469C12.9771 21.072 13.2823 21.1984 13.6006 21.1984Z" fill="white"/>
</g>
<defs>
<clipPath id="clip0_264_7351">
<rect width="19.2" height="19.2" fill="white" transform="translate(6.40039 6.39844)"/>
</clipPath>
</defs>
</svg>
