<svg width="120" height="120" viewBox="20 0 110 125" fill="none" xmlns="http://www.w3.org/2000/svg">
<g filter="url(#filter0_dii_2015_7)">
<rect x="45" y="7" width="75" height="75" rx="37.5" fill="#F4F6F9"/>
</g>
<g filter="url(#filter1_d_2015_7)">
<rect x="24" y="34" width="75" height="75" rx="37.5" fill="white"/>
</g>
<path d="M47.4375 65.875H59.625L60.5625 67.75H48.375L47.4375 65.875ZM48.6875 69.625H60.875L61.8125 71.5H49.625L48.6875 69.625ZM69 79.625C70.0375 79.625 70.875 78.7875 70.875 77.75C70.875 76.7125 70.0375 75.875 69 75.875C67.9625 75.875 67.125 76.7125 67.125 77.75C67.125 78.7875 67.9625 79.625 69 79.625ZM70.875 68.375H67.75V71.5H73.325L70.875 68.375ZM56.5 79.625C57.5375 79.625 58.375 78.7875 58.375 77.75C58.375 76.7125 57.5375 75.875 56.5 75.875C55.4625 75.875 54.625 76.7125 54.625 77.75C54.625 78.7875 55.4625 79.625 56.5 79.625ZM71.5 66.5L75.25 71.5V77.75H72.75C72.75 79.825 71.075 81.5 69 81.5C66.925 81.5 65.25 79.825 65.25 77.75H60.25C60.25 79.825 58.5625 81.5 56.5 81.5C54.425 81.5 52.75 79.825 52.75 77.75H50.25V73.375H52.75V75.25H53.7C54.3875 74.4875 55.3875 74 56.5 74C57.6125 74 58.6125 74.4875 59.3 75.25H65.25V64H50.25C50.25 62.6125 51.3625 61.5 52.75 61.5H67.75V66.5H71.5Z" fill="#F67366"/>
<defs>
<filter id="filter0_dii_2015_7" x="38" y="0" width="91" height="91" filterUnits="userSpaceOnUse" color-interpolation-filters="sRGB">
<feFlood flood-opacity="0" result="BackgroundImageFix"/>
<feColorMatrix in="SourceAlpha" type="matrix" values="0 0 0 0 0 0 0 0 0 0 0 0 0 0 0 0 0 0 127 0" result="hardAlpha"/>
<feOffset dx="1" dy="1"/>
<feGaussianBlur stdDeviation="4"/>
<feColorMatrix type="matrix" values="0 0 0 0 0.956863 0 0 0 0 0.964706 0 0 0 0 0.976471 0 0 0 1 0"/>
<feBlend mode="normal" in2="BackgroundImageFix" result="effect1_dropShadow_2015_7"/>
<feBlend mode="normal" in="SourceGraphic" in2="effect1_dropShadow_2015_7" result="shape"/>
<feColorMatrix in="SourceAlpha" type="matrix" values="0 0 0 0 0 0 0 0 0 0 0 0 0 0 0 0 0 0 127 0" result="hardAlpha"/>
<feOffset dx="4" dy="4"/>
<feGaussianBlur stdDeviation="5"/>
<feComposite in2="hardAlpha" operator="arithmetic" k2="-1" k3="1"/>
<feColorMatrix type="matrix" values="0 0 0 0 0.847 0 0 0 0 0.847 0 0 0 0 0.847 0 0 0 1 0"/>
<feBlend mode="normal" in2="shape" result="effect2_innerShadow_2015_7"/>
<feColorMatrix in="SourceAlpha" type="matrix" values="0 0 0 0 0 0 0 0 0 0 0 0 0 0 0 0 0 0 127 0" result="hardAlpha"/>
<feOffset dx="-6" dy="-5"/>
<feGaussianBlur stdDeviation="6"/>
<feComposite in2="hardAlpha" operator="arithmetic" k2="-1" k3="1"/>
<feColorMatrix type="matrix" values="0 0 0 0 0.980392 0 0 0 0 0.984314 0 0 0 0 0.988235 0 0 0 1 0"/>
<feBlend mode="normal" in2="effect2_innerShadow_2015_7" result="effect3_innerShadow_2015_7"/>
</filter>
<filter id="filter1_d_2015_7" x="-26" y="4" width="175" height="175" filterUnits="userSpaceOnUse" color-interpolation-filters="sRGB">
<feFlood flood-opacity="0" result="BackgroundImageFix"/>
<feColorMatrix in="SourceAlpha" type="matrix" values="0 0 0 0 0 0 0 0 0 0 0 0 0 0 0 0 0 0 127 0" result="hardAlpha"/>
<feOffset dy="20"/>
<feGaussianBlur stdDeviation="25"/>
<feComposite in2="hardAlpha" operator="out"/>
<feColorMatrix type="matrix" values="0 0 0 0 0.592 0 0 0 0 0.592 0 0 0 0 0.592 0 0 0 0.15 0"/>
<feBlend mode="normal" in2="BackgroundImageFix" result="effect1_dropShadow_2015_7"/>
<feBlend mode="normal" in="SourceGraphic" in2="effect1_dropShadow_2015_7" result="shape"/>
</filter>
</defs>
</svg>
