<svg width="32" height="32" viewBox="0 0 32 32" fill="none" xmlns="http://www.w3.org/2000/svg">
<rect width="32" height="32" rx="10" fill="#EF5DA8"/>
<g clip-path="url(#clip0_264_7361)">
<path d="M8.80034 17.1984L8.20034 15.9984H12.4003L11.9203 14.7984H8.00034L7.40034 13.5984H13.6403L13.1603 12.3984H7.28834L6.60034 11.1984H9.60034C9.60034 10.774 9.76891 10.3671 10.069 10.067C10.369 9.76696 10.776 9.59839 11.2003 9.59839H20.8003V12.7984H23.2003L25.6003 15.9984V19.9984H24.0003C24.0003 20.6349 23.7475 21.2454 23.2974 21.6954C22.8473 22.1455 22.2369 22.3984 21.6003 22.3984C20.9638 22.3984 20.3534 22.1455 19.9033 21.6954C19.4532 21.2454 19.2003 20.6349 19.2003 19.9984H16.0003C16.0003 20.6349 15.7475 21.2454 15.2974 21.6954C14.8473 22.1455 14.2369 22.3984 13.6003 22.3984C12.9638 22.3984 12.3534 22.1455 11.9033 21.6954C11.4532 21.2454 11.2003 20.6349 11.2003 19.9984H9.60034V17.1984H8.80034ZM21.6003 21.1984C21.9186 21.1984 22.2238 21.072 22.4489 20.8469C22.6739 20.6219 22.8003 20.3166 22.8003 19.9984C22.8003 19.6801 22.6739 19.3749 22.4489 19.1499C22.2238 18.9248 21.9186 18.7984 21.6003 18.7984C21.2821 18.7984 20.9769 18.9248 20.7518 19.1499C20.5268 19.3749 20.4003 19.6801 20.4003 19.9984C20.4003 20.3166 20.5268 20.6219 20.7518 20.8469C20.9769 21.072 21.2821 21.1984 21.6003 21.1984ZM22.8003 13.9984H20.8003V15.9984H24.3683L22.8003 13.9984ZM13.6003 21.1984C13.9186 21.1984 14.2238 21.072 14.4489 20.8469C14.6739 20.6219 14.8003 20.3166 14.8003 19.9984C14.8003 19.6801 14.6739 19.3749 14.4489 19.1499C14.2238 18.9248 13.9186 18.7984 13.6003 18.7984C13.2821 18.7984 12.9769 18.9248 12.7518 19.1499C12.5268 19.3749 12.4003 19.6801 12.4003 19.9984C12.4003 20.3166 12.5268 20.6219 12.7518 20.8469C12.9769 21.072 13.2821 21.1984 13.6003 21.1984Z" fill="white"/>
</g>
<defs>
<clipPath id="clip0_264_7361">
<rect width="19.2" height="19.2" fill="white" transform="translate(6.40039 6.39844)"/>
</clipPath>
</defs>
</svg>
